<svg xmlns="http://www.w3.org/2000/svg" width="540" height="151" viewBox="0 0 540 151"><path d="M168.982 15.2c.44.733.806 1.503 1.1 2.31.292.808.55 1.613.77 2.42.22.88.366 1.76.44 2.64.072.88.11 1.725.11 2.53 0 1.614-.184 3.338-.55 5.17-.44 1.54-.99 3.118-1.65 4.73-.368.808-.734 1.577-1.1 2.31-.368.734-.77 1.43-1.21 2.09-.44.734-.9 1.413-1.375 2.035-.478.624-1.01 1.23-1.595 1.815-1.1 1.174-2.238 2.31-3.41 3.41-.588.514-1.193 1.01-1.815 1.484-.624.478-1.265.936-1.925 1.375-2.42 1.686-5.06 3.152-7.92 4.4-.368.145-.715.272-1.045.383s-.68.24-1.045.385c-.368.147-.715.274-1.045.384-.33.11-.68.24-1.045.386-.368.147-.715.274-1.045.385s-.68.203-1.045.274c-.294.073-.66.184-1.1.33l-.55.22-.44.11c-1.908.44-3.685.164-5.335-.825-1.65-.99-2.733-2.438-3.245-4.346-.514-1.833-.294-3.557.66-5.17.952-1.613 2.346-2.713 4.18-3.3l.88-.22.88-.33c.292-.073.567-.147.825-.222.256-.07.53-.146.825-.22.732-.292 1.282-.476 1.65-.55.292-.146.55-.256.77-.33.22-.072.476-.182.77-.33 1.1-.44 2.145-.88 3.135-1.32.99-.44 1.96-.952 2.915-1.54.44-.365.897-.677 1.375-.935.476-.257.897-.568 1.265-.936 1.026-.66 1.832-1.32 2.42-1.98.88-.732 1.576-1.466 2.09-2.2.366-.366.677-.75.935-1.154.256-.402.53-.787.825-1.155.952-1.613 1.612-3.373 1.98-5.28.072-.44.11-.88.11-1.32v-1.43c0-.953-.11-1.87-.33-2.75-.22-.953-.55-1.87-.99-2.75-.148-.367-.368-.843-.66-1.43l-.44-.66-.44-.66c-.66-.88-1.43-1.706-2.31-2.476-.88-.77-1.834-1.448-2.86-2.036-2.054-1.173-4.4-1.943-7.04-2.31-.294 0-.588-.018-.88-.056-.294-.036-.624-.055-.99-.055-.147 0-.294-.02-.44-.056-.148-.036-.294-.055-.44-.055h-.99c-.588.073-1.21.11-1.87.11-.66 0-1.284.073-1.87.22-1.248.147-2.494.367-3.74.66-1.248.293-2.458.66-3.63 1.1-1.248.44-2.42.934-3.52 1.484-1.1.55-2.2 1.155-3.3 1.815-2.2 1.394-4.18 2.86-5.94 4.4-.954.808-1.87 1.633-2.75 2.476-.88.844-1.724 1.704-2.53 2.585-.44.44-.863.88-1.265 1.32-.404.44-.79.88-1.155 1.32-.44.44-.863.898-1.265 1.375-.404.478-.79.935-1.155 1.375-.734.953-1.45 1.924-2.145 2.914-.698.99-1.375 2-2.035 3.025-1.248 2.052-2.403 4.16-3.465 6.322-1.064 2.164-2 4.346-2.805 6.545-.88 2.274-1.633 4.548-2.255 6.82-.624 2.274-1.155 4.584-1.595 6.93-.22 1.1-.385 2.22-.495 3.355-.11 1.138-.24 2.293-.385 3.465-.22 2.274-.22 4.51 0 6.71.072 1.028.165 2.073.275 3.135.11 1.064.275 2.11.495 3.136.44 1.906 1.062 3.738 1.87 5.5.806 1.76 1.832 3.337 3.08 4.728.732.734 1.502 1.358 2.31 1.87.146.147.33.275.55.385.22.11.476.24.77.386.586.294 1.062.515 1.43.66 1.026.44 2.052.77 3.08.99.292.074.567.13.825.165.256.04.567.094.935.166.366 0 .66.038.88.11h.44l.44.11c1.246.147 2.475.238 3.685.274 1.21.038 2.437-.018 3.685-.165 1.246-.146 2.42-.366 3.52-.66.586-.146 1.172-.31 1.76-.495.586-.182 1.172-.385 1.76-.604 2.272-.88 4.4-2.09 6.38-3.63 1.98-1.467 3.702-3.19 5.17-5.17.732-.953 1.392-2.017 1.98-3.19.146-.292.275-.567.385-.825.11-.255.237-.53.385-.824.072-.146.127-.274.165-.385.036-.11.09-.236.165-.384 0-.146.017-.256.055-.33.036-.072.055-.183.055-.33.072-.146.11-.33.11-.55s.036-.402.11-.55c0-.22.018-.422.055-.605.036-.18.055-.346.055-.494.22-2.126 1.172-3.886 2.86-5.28 1.686-1.392 3.592-1.98 5.72-1.76 2.126.22 3.867 1.174 5.225 2.86 1.356 1.688 1.96 3.594 1.815 5.72-.074.588-.258 1.284-.55 2.09l-.22.55c-.147.22-.24.44-.275.66-.038.22-.13.44-.275.66l-.55 1.21c-.148.368-.313.77-.495 1.21-.184.44-.385.844-.605 1.21l-1.1 2.42c-.148.368-.33.753-.55 1.155-.22.405-.404.79-.55 1.156-.808 1.54-1.614 3.1-2.42 4.675-.808 1.58-1.614 3.1-2.42 4.566-1.688 3.08-3.43 6.088-5.225 9.02-1.798 2.934-3.723 5.794-5.775 8.58-1.028 1.393-2.073 2.768-3.135 4.125-1.063 1.357-2.183 2.696-3.355 4.016-.587.66-1.192 1.32-1.815 1.98-.624.66-1.23 1.282-1.815 1.87-.588.586-1.193 1.19-1.815 1.814-.624.622-1.265 1.228-1.925 1.815-1.32 1.172-2.678 2.29-4.07 3.354-1.394 1.062-2.824 2.07-4.29 3.025-3.08 1.906-6.234 3.52-9.46 4.84-.808.366-1.65.66-2.53.88-.88.22-1.724.44-2.53.66-.88.22-1.76.42-2.64.605-.88.183-1.76.348-2.64.496-1.76.22-3.52.33-5.28.33h-2.64c-.44 0-.88-.02-1.32-.056-.44-.038-.88-.093-1.32-.165-1.76-.074-3.52-.294-5.28-.66-1.76-.22-3.52-.66-5.28-1.32-.88-.293-1.76-.604-2.64-.935-.88-.33-1.723-.753-2.53-1.265-1.612-.808-3.226-1.908-4.84-3.3-.732-.66-1.43-1.358-2.09-2.09-.366-.368-.696-.753-.99-1.155-.292-.404-.586-.825-.88-1.266-1.246-1.613-2.236-3.373-2.97-5.28-.366-1.027-.677-2.018-.935-2.97-.256-.953-.495-1.943-.715-2.97l-.33-2.97c-.072-.514-.11-1.01-.11-1.485v-1.486c.148-4.253.954-8.25 2.42-11.99.734-1.906 1.724-3.812 2.97-5.72.66-1.026 1.357-1.942 2.09-2.75.734-.88 1.614-1.76 2.64-2.64l.77-.55c1.688-1.394 3.594-1.998 5.72-1.816 2.128.184 3.888 1.118 5.28 2.805 1.394 1.688 1.98 3.594 1.76 5.72-.22 2.128-1.172 3.888-2.86 5.28-.44.44-.952.77-1.54.99-.146.147-.33.274-.55.385-.22.11-.402.238-.55.385-.292.147-.696.478-1.21.99-.66.66-1.356 1.613-2.09 2.86-.366.514-.677 1.063-.935 1.65-.256.587-.53 1.173-.825 1.76-.22.585-.44 1.19-.66 1.814-.22.62-.402 1.264-.55 1.924-.292 1.32-.476 2.64-.55 3.96-.072 1.32 0 2.64.22 3.96.22 1.394.55 2.677.99 3.85.147.367.294.68.44.937.148.256.294.53.44.825.368.66.734 1.246 1.1 1.76.734 1.1 1.724 2.09 2.97 2.97 1.248.952 2.494 1.687 3.74 2.2 1.394.732 2.786 1.246 4.18 1.54.806.146 1.576.292 2.31.44.732.146 1.502.256 2.31.33.22 0 .42.017.605.055.182.036.385.055.605.055h1.21c.22.072.586.11 1.1.11h1.21c.806-.074 1.576-.13 2.31-.165.732-.038 1.502-.13 2.31-.275 1.54-.22 3.08-.55 4.62-.99 1.32-.44 2.786-.953 4.4-1.54 2.86-1.32 5.536-2.897 8.03-4.73 1.32-.88 2.566-1.833 3.74-2.86 1.172-1.026 2.31-2.127 3.41-3.3 2.2-2.272 4.235-4.712 6.105-7.313 1.87-2.605 3.61-5.3 5.225-8.087 1.54-2.712 2.97-5.57 4.29-8.58 1.32-2.932 2.53-5.9 3.63-8.91.22-.73.457-1.446.715-2.145.256-.695.495-1.41.715-2.144-.88.954-1.798 1.87-2.75 2.75-2.2 1.834-4.548 3.41-7.04 4.73-.587.367-1.21.678-1.87.935-.66.26-1.32.532-1.98.825-.66.22-1.32.458-1.98.715-.66.26-1.358.46-2.09.605-2.788.954-5.574 1.578-8.36 1.87l-.44.11h-.55c-.22 0-.423.02-.605.055-.184.038-.35.055-.495.055h-2.31c-.808 0-1.578-.017-2.31-.055-.734-.036-1.504-.127-2.31-.275l-2.31-.33c-.44-.145-.863-.256-1.265-.33-.404-.07-.79-.182-1.155-.33-1.688-.585-3.228-1.28-4.62-2.09-1.394-.73-2.788-1.686-4.18-2.86-1.468-1.32-2.678-2.565-3.63-3.74-1.028-1.32-1.925-2.73-2.695-4.234-.77-1.5-1.45-2.984-2.035-4.452-1.1-3.08-1.76-6.196-1.98-9.35-.148-1.54-.24-3.062-.275-4.565-.038-1.503.017-2.987.165-4.455.22-3.007.66-5.94 1.32-8.8.586-2.933 1.375-5.757 2.365-8.47.99-2.713 2.145-5.353 3.465-7.92 1.246-2.567 2.657-5.06 4.235-7.48 1.576-2.42 3.28-4.767 5.115-7.04.88-1.1 1.796-2.162 2.75-3.19.952-1.026 1.942-2.052 2.97-3.08.586-.512 1.117-1.007 1.595-1.484.476-.477 1.007-.972 1.595-1.485.586-.44 1.155-.88 1.705-1.32.55-.44 1.117-.88 1.705-1.32 1.246-.807 2.475-1.577 3.685-2.31 1.21-.733 2.475-1.393 3.795-1.98 2.346-1.247 4.986-2.273 7.92-3.08 1.393-.367 2.75-.716 4.07-1.046 1.32-.33 2.676-.605 4.07-.825 2.712-.44 5.462-.77 8.25-.99.66 0 1.32-.018 1.98-.056.66-.036 1.356-.055 2.09-.055h2.09c.366.073.696.11.99.11h.99c1.466.147 2.877.312 4.235.494 1.356.184 2.767.46 4.235.825 1.246.293 2.64.733 4.18 1.32.732.367 1.43.714 2.09 1.044.66.33 1.32.715 1.98 1.155.366.22.696.46.99.714.292.258.622.495.99.715.292.293.586.57.88.824.292.258.586.57.88.935 1.246 1.32 2.2 2.68 2.86 4.07zm-8.03 93.17c-.146-.66-.22-1.302-.22-1.926 0-.622-.036-1.227-.11-1.814v-3.41c.074-2.2.294-4.4.66-6.6.148-1.026.313-2.07.495-3.136.184-1.062.35-2.107.495-3.135.22-1.028.44-2.073.66-3.137.22-1.062.476-2.107.77-3.135.22-1.027.457-2.036.715-3.026.256-.99.53-1.997.825-3.025.292-1.026.586-2.017.88-2.97.292-.953.586-1.943.88-2.97l1.98-5.94.99-2.97.55-1.43c.146-.294.237-.552.275-.772.036-.22.127-.476.275-.77.806-1.98 2.18-3.392 4.125-4.235 1.942-.842 3.905-.86 5.885-.055 1.98.808 3.41 2.164 4.29 4.07.88 1.907.916 3.85.11 5.83-.074.073-.11.184-.11.33h-.11l-.55 1.32-.55 1.32c-.22.438-.423.88-.605 1.318-.184.44-.35.88-.495 1.32-.368.954-.753 1.87-1.155 2.75-.404.88-.79 1.798-1.155 2.75-.368.88-.715 1.78-1.045 2.695-.33.918-.68 1.854-1.045 2.806-.368.88-.698 1.78-.99 2.695-.294.917-.624 1.853-.99 2.805-.368.88-.68 1.78-.935 2.695-.258.918-.57 1.854-.935 2.806-.294.88-.55 1.78-.77 2.695-.22.92-.44 1.855-.66 2.807-.294.88-.533 1.78-.715 2.695-.184.918-.35 1.815-.495 2.695-.074.44-.13.88-.165 1.32-.038.44-.093.844-.165 1.21 0 .44-.02.863-.055 1.265-.038.404-.055.79-.055 1.155.072.368.11.715.11 1.045s.036.643.11.936c0 .147.017.258.055.33.036.073.055.147.055.22.072.147.11.294.11.44v.22c.072 0 .127.018.165.054.036.038.127.055.275.055h.22c.072 0 .11.02.11.056 0 .038.036.056.11.056h.11c.22 0 .402-.037.55-.11.146 0 .44-.073.88-.22.512-.22 1.172-.587 1.98-1.1.806-.514 1.502-1.027 2.09-1.54.366-.294.732-.588 1.1-.88.366-.294.732-.624 1.1-.99 1.32-1.247 2.676-2.604 4.07-4.07.66-.733 1.32-1.448 1.98-2.146.66-.695 1.32-1.446 1.98-2.255.586-.807 1.375-1.833 2.365-3.08.99-1.246 1.777-2.27 2.365-3.08.366-.366.677-.75.935-1.155.256-.4.567-.786.935-1.154l.88-1.21c.146-.22.292-.44.44-.66.146-.22.292-.4.44-.55.292-.365.677-.603 1.155-.714.477-.11.935-.017 1.375.276.732.587.917 1.32.55 2.2-.148.22-.275.458-.385.715-.11.26-.24.495-.385.716l-.66 1.32c-.44 1.1-.917 2.018-1.43 2.75-.514.953-1.174 2.127-1.98 3.52-.808 1.394-1.468 2.53-1.98 3.41-.588.88-1.155 1.76-1.705 2.64-.55.88-1.12 1.76-1.705 2.64-.588.88-1.193 1.743-1.815 2.585-.624.846-1.265 1.67-1.925 2.477-.368.44-.715.88-1.045 1.32-.33.44-.68.842-1.045 1.21-.368.365-.77.77-1.21 1.21-.44.44-.88.842-1.32 1.21-1.028.88-2.018 1.612-2.97 2.2-.294.145-.588.31-.88.494-.294.183-.624.35-.99.495-.588.292-1.394.55-2.42.77h-.33l-.33.11h-.55c-.294.072-.698.11-1.21.11-.954 0-1.834-.147-2.64-.44-.44-.147-.9-.294-1.375-.44-.478-.147-.935-.367-1.375-.66-.88-.587-1.614-1.21-2.2-1.87-.734-.807-1.248-1.54-1.54-2.2-.44-.732-.77-1.465-.99-2.198-.292-.732-.495-1.43-.605-2.09-.11-.658-.238-1.28-.385-1.87zm29.59-70.07c-2.714 0-5.005-.936-6.875-2.806s-2.805-4.16-2.805-6.875c0-2.714.935-5.007 2.805-6.877s4.16-2.805 6.875-2.805c2.64 0 4.912.935 6.82 2.804 1.906 1.87 2.86 4.163 2.86 6.875 0 2.714-.954 5.005-2.86 6.874-1.908 1.87-4.18 2.807-6.82 2.807zM190.1 148.96c-1.686-.368-3.006-1.266-3.96-2.695-.952-1.43-1.32-2.99-1.1-4.675v-.55l.11-.55.11-.99c.074-.294.13-.588.165-.88.038-.294.093-.588.165-.88.148-.59.258-1.175.33-1.76l.22-1.76c.148-.59.258-1.175.33-1.76.074-.59.184-1.175.33-1.762l.33-1.76.33-1.76.77-3.52.66-3.41c.148-.588.258-1.174.33-1.76.074-.59.184-1.175.33-1.76l.77-3.52.77-3.41.77-3.522c.22-1.172.46-2.327.715-3.465.258-1.134.533-2.29.825-3.463.514-2.346 1.028-4.656 1.54-6.93.514-2.272 1.064-4.582 1.65-6.93 1.1-4.62 2.217-9.203 3.355-13.75 1.136-4.547 2.327-9.13 3.575-13.75.292-1.173.586-2.328.88-3.466.292-1.135.622-2.29.99-3.464.292-1.172.586-2.327.88-3.465.292-1.135.623-2.254.99-3.354.66-2.346 1.32-4.655 1.98-6.93.66-2.272 1.356-4.546 2.09-6.82.146-.586.33-1.172.55-1.76.22-.586.402-1.172.55-1.76l.66-1.76.66-1.76c.146-.293.256-.587.33-.88.072-.293.182-.587.33-.88l.33-.88c.146-.44.256-.733.33-.88.292-.587.55-1.156.77-1.706.22-.55.512-1.118.88-1.706 1.1-2.272 2.42-4.472 3.96-6.6.732-1.1 1.576-2.162 2.53-3.19l.715-.715c.256-.258.53-.497.825-.717.366-.44.916-.917 1.65-1.43.512-.512 1.136-.952 1.87-1.32.806-.512 1.54-.88 2.2-1.1.732-.292 1.612-.512 2.64-.66.44-.072.916-.072 1.43 0h.77c.146.074.292.11.44.11.146 0 .292.038.44.11.292.147.567.275.825.385.256.11.53.274.825.494.44.368.842.77 1.21 1.21.292.44.512.88.66 1.32.146.368.292.77.44 1.21.146.368.22.734.22 1.1 0 .368.036.734.11 1.1v1.98c-.074.66-.13 1.32-.165 1.98-.038.66-.13 1.284-.275 1.87-.074.588-.147 1.193-.22 1.815-.074.623-.184 1.228-.33 1.814-.074.368-.148.68-.22.936-.074.257-.147.568-.22.934-.074.294-.148.57-.22.825-.074.257-.147.568-.22.935-.148.588-.313 1.154-.495 1.705-.184.55-.35 1.118-.495 1.705-.66 2.348-1.394 4.657-2.2 6.93-.808 2.273-1.65 4.548-2.53 6.82l-1.32 3.3c-.44 1.1-.918 2.2-1.43 3.3l-.44.88-.33.77c-.147.368-.294.68-.44.936-.148.26-.294.534-.44.826l-1.65 3.3c-.588 1.027-1.174 2.073-1.76 3.135-.587 1.065-1.174 2.11-1.76 3.136-.588 1.028-1.155 2.073-1.705 3.136-.55 1.062-1.12 2.107-1.705 3.134-.588 1.027-1.138 2.072-1.65 3.135-.514 1.063-1.028 2.11-1.54 3.134-.22.588-.44 1.14-.66 1.65-.22.514-.478 1.063-.77 1.65-.293.514-.478 1.027-.55 1.54-.074.22-.184.478-.33.77l-.33.88c-.147.22-.258.46-.33.715-.074.257-.184.46-.33.604L211 88.9c-.44 2.053-.9 4.088-1.375 6.104-.478 2.018-.935 4.053-1.375 6.104 1.026-1.172 2.052-2.29 3.08-3.354 1.026-1.062 2.126-2.107 3.3-3.136 1.76-1.54 3.63-2.97 5.61-4.29 1.98-1.32 4.07-2.42 6.27-3.3.366-.146.75-.127 1.155.056.402.184.677.46.825.824.366.88.146 1.54-.66 1.98-1.833 1.027-3.558 2.255-5.17 3.685-1.614 1.43-3.118 2.953-4.51 4.565-2.788 3.154-5.244 6.674-7.37 10.56-1.028 1.908-2.018 3.833-2.97 5.775-.954 1.942-1.833 3.905-2.64 5.885-.368 1.026-.734 2.053-1.1 3.08-.368 1.026-.734 2.053-1.1 3.08-.148.513-.313 1.007-.495 1.485-.184.476-.35 1.007-.495 1.595-.074.22-.148.457-.22.715-.074.256-.148.495-.22.715l-.22.77-.11.44v.33c-.148.292-.258.567-.33.825-.074.256-.184.495-.33.715l-.66 2.97-.88 3.41-.33 1.65-.44 1.43v.33c-.44 1.832-1.45 3.245-3.025 4.235s-3.28 1.266-5.115.827zM223.43 33.9c-.588 2.273-1.138 4.528-1.65 6.765-.514 2.237-1.028 4.528-1.54 6.875l-.33 1.32c.146-.22.33-.44.55-.66.22-.22.402-.44.55-.66.366-.44.696-.88.99-1.32.292-.44.622-.916.99-1.43l.99-1.32.44-.77.44-.77c.586-.953 1.155-1.943 1.705-2.97.55-1.027 1.117-2.054 1.705-3.08 2.2-4.182 4.032-8.434 5.5-12.762l.99-3.3c.146-.292.237-.567.275-.825.036-.256.127-.53.275-.824l.22-.88.11-.33v-.44c.146-.588.256-1.138.33-1.65.072-.514.146-1.064.22-1.65v-1.65c0-.513-.038-1.063-.11-1.65 0-.367-.074-.843-.22-1.43-.074-.293-.148-.55-.22-.77-.074-.22-.147-.403-.22-.55-.074-.073-.13-.147-.165-.22-.038-.073-.093-.147-.165-.22-.074-.073-.148-.11-.22-.11-.074-.073-.11-.073-.11 0v.33h-.11c-.074 0-.13.02-.165.054-.038.038-.093.055-.165.055-.148.147-.258.24-.33.274-.074.038-.184.13-.33.275-.294.22-.55.494-.77.824-.22.33-.478.68-.77 1.045l-.66 1.32c-.22.367-.44.807-.66 1.32-.514 1.027-.918 1.98-1.21 2.86l-.33.66-.22.77-.55 1.54c-.22.514-.423 1.027-.605 1.54-.184.514-.35 1.027-.495 1.54l-1.21 3.19-.22.77c-.074.147-.13.274-.165.385-.038.11-.093.238-.165.385-.148.59-.294 1.1-.44 1.54-.148.59-.294 1.14-.44 1.65-.148.515-.294 1.064-.44 1.65-.147.588-.294 1.138-.44 1.65-.148.514-.294 1.063-.44 1.65zM272.93 29.5c.07-.293.146-.55.22-.77.07-.22.145-.477.22-.77.586-2.054 1.355-4.053 2.31-5.996.952-1.942 2.09-3.795 3.41-5.556 1.246-1.76 2.64-3.372 4.18-4.84.807-.73 1.632-1.43 2.476-2.09.842-.66 1.74-1.28 2.695-1.87 1.834-1.1 3.76-2.034 5.776-2.804 2.017-.77 4.125-1.3 6.325-1.595 2.27-.22 4.437-.184 6.49.11 1.1.145 2.18.366 3.245.66 1.062.292 2.107.732 3.136 1.32.514.22 1.008.476 1.486.77.476.29.935.622 1.375.99.44.366.88.75 1.32 1.153.44.404.843.79 1.21 1.155.366.44.696.88.99 1.32.29.44.62.917.99 1.43.51.807.95 1.76 1.32 2.86.44 1.173.77 2.2.99 3.08.145.513.236 1.027.273 1.54.037.513.092 1.026.166 1.54.07.513.126 1.008.163 1.484.037.478.056.973.056 1.484 0 .148-.02.275-.057.385-.037.11-.055.24-.055.387v.77c0 .293-.02.568-.055.824-.037.26-.055.534-.055.826-.368 2.127-1.028 4.106-1.98 5.938-.44.88-.936 1.743-1.484 2.585-.55.844-1.155 1.632-1.815 2.364-1.25 1.54-2.605 2.953-4.07 4.235-1.47 1.283-3.008 2.437-4.62 3.464-3.154 1.98-6.564 3.594-10.23 4.84-1.248.44-2.513.844-3.795 1.21-1.284.368-2.55.698-3.796.99.292.368.586.753.88 1.155.292.402.586.787.88 1.153.513.66 1.026 1.303 1.54 1.926.512.622 1.025 1.23 1.54 1.813.292.294.567.588.825.88.256.294.566.588.935.88.145.148.273.294.385.44.11.147.236.294.385.44l.44.44.55.44.44.55c.145.146.255.237.33.273.07.038.145.13.22.275.512.515.88.92 1.1 1.21.732.735 1.43 1.54 2.09 2.42 1.246 1.615 2.455 3.45 3.63 5.5 1.026 1.835 1.942 3.925 2.75 6.27.66 2.2 1.1 4.51 1.32 6.93.22 2.496.182 4.84-.11 7.04-.294 2.2-.918 4.476-1.87 6.82-.954 2.35-2.09 4.44-3.41 6.27-1.32 1.91-2.823 3.63-4.51 5.17-.44.37-.88.717-1.32 1.047s-.917.68-1.43 1.046c-.808.586-1.724 1.21-2.75 1.87-.515.292-1.01.55-1.485.77-.478.22-.973.477-1.484.77-.512.22-1.026.422-1.54.606-.513.18-1.026.384-1.54.603-.586.146-1.117.292-1.594.44-.478.146-1.008.292-1.595.44-.513.145-1.027.256-1.54.33-.513.07-1.026.182-1.54.33-.586.145-1.137.236-1.65.274-.512.036-1.026.09-1.54.165-.587 0-1.117.017-1.593.055-.48.036-1.01.055-1.596.055-.513 0-1.026-.02-1.54-.055-.513-.038-1.027-.055-1.54-.055-.293-.074-.567-.11-.823-.11-.258 0-.496-.038-.716-.11h-.77l-.22-.11h-.55c-1.1-.147-2.2-.35-3.3-.604-1.1-.257-2.163-.567-3.19-.934-2.127-.808-4.143-1.87-6.05-3.19-1.907-1.394-3.557-3.042-4.95-4.95-1.393-2.052-2.42-4.105-3.08-6.16-.367-1.025-.642-2.106-.824-3.244-.184-1.137-.275-2.255-.275-3.355 0-2.2.33-4.362.99-6.49.147-.512.31-1.007.496-1.484.182-.476.347-.97.495-1.484.22-.512.46-.99.716-1.43.256-.44.495-.88.715-1.32.293-.512.568-.97.826-1.375.256-.4.567-.824.935-1.264l1.98-2.31c1.32-1.467 2.823-2.75 4.51-3.85 3.08-2.2 6.527-3.887 10.34-5.06.44-.147.843-.11 1.21.108.367.22.623.55.77.99.22.88-.036 1.504-.77 1.87l-.33.22-.22.11c-.293.147-.48.258-.55.33-.293.147-.66.367-1.1.66-.367.22-.733.458-1.1.715-.37.26-.734.495-1.1.715-.66.588-1.303 1.138-1.925 1.65-.624.514-1.23 1.063-1.815 1.65-1.25 1.247-2.31 2.512-3.19 3.794-.88 1.283-1.615 2.66-2.2 4.124-.295.66-.55 1.394-.77 2.2-.075.368-.15.733-.22 1.1-.075.368-.148.734-.22 1.1-.22 1.47-.22 2.898 0 4.29.145.66.29 1.32.44 1.98.145.66.4 1.284.77 1.87.585 1.32 1.28 2.42 2.09 3.3.44.44.915.844 1.43 1.21.51.368 1.06.734 1.65 1.1.585.368 1.19.66 1.814.88.622.22 1.265.44 1.925.66.66.148 1.32.26 1.98.33.66.074 1.353.148 2.09.22h2.31c.365-.07.75-.11 1.154-.11.402 0 .787-.035 1.155-.108.73 0 1.5-.11 2.31-.33.364-.072.713-.128 1.043-.165.33-.035.678-.127 1.045-.274.366-.146.714-.256 1.044-.33.33-.072.678-.182 1.045-.33.88-.22 1.575-.476 2.09-.77.366-.146.677-.292.935-.44.256-.146.567-.292.936-.44.293-.22.587-.42.88-.604.293-.182.587-.347.88-.495l1.65-1.32c.22-.22.458-.44.716-.66.256-.22.494-.44.715-.66 1.76-1.76 3.115-3.92 4.07-6.49.806-2.345 1.025-4.765.66-7.26-.37-2.565-1.21-5.02-2.53-7.37-.368-.585-.753-1.17-1.155-1.76-.404-.585-.825-1.172-1.266-1.76-.22-.292-.44-.566-.66-.824-.22-.257-.478-.53-.77-.825l-.386-.386c-.11-.11-.238-.237-.385-.386l-.33-.44-.44-.33-.55-.55-.55-.55-.99-.99c-.37-.365-.7-.73-.99-1.1-.295-.365-.625-.73-.99-1.1-.66-.806-1.32-1.576-1.98-2.31-.66-.732-1.283-1.503-1.87-2.31-1.1-1.54-2.163-3.117-3.19-4.73-1.027-1.612-1.943-3.337-2.75-5.17-1.688-.072-3.393-.2-5.114-.386-1.724-.182-3.43-.495-5.115-.935-1.027-.292-2.017-.605-2.97-.936-.953-.33-1.907-.715-2.86-1.154-1.98-.88-3.85-1.98-5.61-3.3-.807-.587-1.613-1.266-2.42-2.035-.807-.77-1.613-1.557-2.42-2.364-.733-.88-1.412-1.777-2.034-2.695-.624-.915-1.193-1.886-1.705-2.914-1.027-2.052-1.833-4.234-2.42-6.545-.585-2.31-.88-4.674-.88-7.094.075-1.246.204-2.456.386-3.63.182-1.173.458-2.383.825-3.63.367-1.173.826-2.327 1.376-3.466.55-1.135 1.227-2.216 2.035-3.244 1.247-1.686 2.916-2.695 5.006-3.025s4.015.13 5.775 1.377c1.613 1.248 2.603 2.843 2.97 4.785.367 1.944.037 3.76-.99 5.446l-.22.22c-.587 1.027-1.063 2.018-1.43 2.97-.44 1.028-.77 2.128-.99 3.3-.146.734-.22 1.32-.22 1.76-.073.368-.11.698-.11.99v.99c.147 1.248.367 2.53.66 3.85.293 1.32.77 2.604 1.43 3.85.66 1.25 1.43 2.46 2.31 3.63 1.98 2.274 4.363 4.18 7.15 5.72 1.467.735 3.19 1.396 5.17 1.98 0-.145-.02-.236-.055-.274-.037-.036-.055-.127-.055-.274-.293-1.026-.532-2.09-.714-3.19-.184-1.1-.312-2.2-.385-3.3-.146-1.1-.2-2.218-.164-3.355.037-1.136.128-2.255.275-3.354.073-.586.147-1.137.22-1.65.074-.512.184-1.062.33-1.65v-.22l.11-.11v-.44l.11-.22v-.22l.11-.33zm12.65 5.94c0 1.394.11 2.75.33 4.07.44 2.713 1.318 5.39 2.64 8.03.07.146.145.293.22.438.072.147.146.294.22.44 1.466-.293 2.915-.605 4.345-.936s2.877-.75 4.346-1.265c1.613-.586 3.19-1.265 4.73-2.035 1.54-.77 3.007-1.63 4.4-2.585 1.32-.806 2.676-1.796 4.07-2.97.586-.586 1.155-1.19 1.705-1.815.55-.622 1.117-1.227 1.705-1.814.95-1.246 1.76-2.603 2.42-4.07.66-1.393 1.1-2.86 1.32-4.4V24.22c-.075-.366-.11-.75-.11-1.155 0-.402-.074-.787-.22-1.155-.222-1.61-.66-3.08-1.32-4.4-.15-.365-.33-.677-.55-.935-.22-.256-.44-.53-.66-.824-.148-.364-.35-.66-.605-.88-.258-.22-.496-.44-.715-.66-.295-.29-.57-.53-.826-.714-.258-.182-.532-.347-.824-.495-.294-.22-.588-.384-.88-.494-.294-.11-.624-.237-.99-.385-1.394-.51-2.75-.77-4.07-.77-1.394 0-2.788.22-4.18.66-1.248.295-2.604.81-4.07 1.54-.587.368-1.192.754-1.815 1.156-.623.403-1.23.862-1.814 1.375-2.197 1.908-4.03 4.18-5.5 6.82-1.393 2.714-2.31 5.464-2.75 8.25-.146.44-.22.808-.22 1.1v.22l-.11.11v.77c-.072.37-.107.716-.107 1.046s-.04.678-.113 1.044zm47.518 75.79v.22l-1.1 4.29v.22c-.44 1.832-1.45 3.245-3.025 4.234-1.578.99-3.283 1.266-5.115.825-1.686-.37-3.006-1.25-3.96-2.64-.952-1.397-1.356-2.937-1.21-4.62.074-.22.11-.516.11-.88l.11-.88.22-1.54c.147-.59.24-1.12.274-1.598.038-.476.13-1.007.275-1.595l.44-3.08.55-3.08c.147-.512.258-1.007.33-1.484.073-.477.147-.972.22-1.485l.66-3.08c.147-1.027.33-2.053.55-3.08l.66-3.08c.806-4.106 1.65-8.158 2.53-12.156.88-3.996 1.83-8.01 2.86-12.045 1.025-4.106 2.05-8.158 3.08-12.155 1.025-3.996 2.125-8.012 3.3-12.045l.99-2.97c.145-.513.29-1.008.438-1.485.146-.477.293-.972.44-1.485.366-1.026.696-2.035.99-3.025.292-.99.622-1.997.99-3.024.145-.512.31-1.025.495-1.54.182-.512.347-1.025.494-1.54.22-.512.422-1.006.605-1.484.18-.476.383-1.007.603-1.595.22-.586.42-1.1.604-1.54.183-.44.385-.95.604-1.54.22-.51.44-1.007.66-1.485.22-.476.478-.97.77-1.484 1.028-2.052 2.164-3.96 3.41-5.72.368-.51.733-.99 1.1-1.43.368-.44.734-.88 1.103-1.32.146-.29.33-.55.55-.77l.66-.66c.366-.44.77-.84 1.21-1.21.512-.44 1.007-.86 1.484-1.264.477-.402 1.008-.788 1.596-1.155.66-.44 1.28-.805 1.87-1.1.365-.145.73-.274 1.1-.384s.73-.2 1.1-.275c.732-.22 1.54-.33 2.42-.33l.33.11h.33c.146 0 .274.02.385.056.11.038.236.055.385.055.44.15.916.33 1.43.55.512.37.952.7 1.32.99.146.22.29.424.44.606.145.184.29.385.438.605.368.66.624 1.36.77 2.09.074.37.13.7.167.99.035.295.054.625.054.99.073.295.11.59.11.88v.88l-.33 3.3c-.072.588-.146 1.138-.22 1.65-.073.515-.147 1.064-.22 1.65l-.33 1.65-.11.33-.11.44-.11.77c-1.173 4.254-2.382 8.288-3.63 12.1-.732 1.98-1.483 3.943-2.254 5.886-.77 1.943-1.56 3.904-2.366 5.885-.22.515-.44.99-.66 1.43-.22.44-.44.92-.66 1.43l-.11.33-.22.44c-.146.295-.257.55-.33.77-.146.22-.273.46-.384.717-.11.258-.24.495-.386.715-.293.514-.55.99-.77 1.43-.22.44-.478.918-.77 1.43-.22.44-.46.88-.715 1.32-.26.44-.534.918-.826 1.43-.516.88-1.01 1.78-1.486 2.695-.48.918-.974 1.853-1.485 2.806-.516.88-1.01 1.778-1.486 2.694-.478.918-.974 1.853-1.485 2.806-.44.88-.88 1.778-1.32 2.694-.44.918-.88 1.853-1.32 2.806-.515.953-.918 1.87-1.21 2.75l-.33.77-.22.66-.33.66-.22.66c-.515 2.2-.99 4.4-1.43 6.6s-.92 4.4-1.43 6.6l.77-1.76c.29-.88.66-1.722 1.1-2.53.146-.366.33-.75.55-1.154.22-.403.4-.826.55-1.267.807-1.612 1.612-3.207 2.42-4.785.807-1.576 1.686-3.172 2.64-4.785.22-.366.44-.752.66-1.155.22-.402.477-.787.77-1.155l1.43-2.42c.513-.806 1.01-1.63 1.486-2.475.476-.843 1.007-1.668 1.595-2.476 1.1-1.612 2.42-3.262 3.96-4.95.733-.806 1.56-1.575 2.477-2.31.916-.732 1.924-1.393 3.024-1.98 1.1-.66 2.31-1.21 3.63-1.65.66-.145 1.32-.29 1.98-.44.66-.145 1.394-.255 2.2-.33h.55l.22-.108h.33c.73 0 1.28.038 1.65.11.366.073.714.128 1.044.164.33.038.678.13 1.045.275.366.074.73.184 1.1.33.366.147.732.294 1.1.44.807.44 1.503.917 2.09 1.43.733.66 1.32 1.284 1.76 1.87.587.733.99 1.394 1.21 1.98l.44.88c.147.293.257.587.33.88.366.953.62 1.943.77 2.97.073.44.11.862.11 1.265v1.155c0 .733-.02 1.413-.055 2.035-.036.624-.092 1.23-.164 1.814-.146.588-.257 1.138-.33 1.65-.072.514-.183 1.027-.33 1.54-.146.514-.293 1.01-.44 1.484-.145.48-.292.936-.44 1.375-.29.955-.586 1.87-.88 2.75-.292.88-.622 1.76-.987 2.64-.368.81-.716 1.635-1.045 2.477-.33.843-.68 1.668-1.046 2.475-.733 1.688-1.448 3.318-2.145 4.895-.698 1.578-1.375 3.135-2.035 4.675l-1.98 4.62c-.367.808-.68 1.578-.935 2.31-.258.734-.533 1.47-.825 2.2-.147.368-.274.734-.385 1.1-.11.368-.24.734-.386 1.1-.072.37-.145.716-.22 1.046-.072.33-.146.644-.22.937-.146.44-.22.77-.22.99.514-.147 1.027-.366 1.54-.66.66-.22 1.283-.55 1.87-.99.367-.22.697-.44.99-.66l.88-.66c.66-.44 1.32-.916 1.98-1.43.66-.513 1.28-1.062 1.87-1.65 1.246-1.025 2.475-2.145 3.686-3.354 1.21-1.21 2.4-2.437 3.575-3.685.587-.586 1.34-1.447 2.257-2.585.917-1.136 1.667-2.035 2.255-2.694.367-.366.678-.696.936-.99.257-.292.532-.622.825-.99l.77-.99.88-.99c.66-.66 1.32-.73 1.98-.22.66.514.77 1.1.33 1.76-.073.22-.257.624-.55 1.21l-.55 1.21c-.22.368-.44.753-.66 1.155-.22.405-.403.79-.55 1.156-.44.808-1.063 1.815-1.87 3.025-.808 1.21-1.43 2.22-1.87 3.025-.514.808-.99 1.578-1.43 2.31-.44.734-.918 1.505-1.43 2.31-.588.735-1.1 1.47-1.54 2.2-.294.37-.57.734-.825 1.1-.258.37-.533.735-.824 1.102-1.1 1.467-2.31 2.896-3.63 4.29-.66.658-1.358 1.336-2.09 2.033-.735.696-1.505 1.338-2.312 1.926-.44.365-.898.676-1.375.934-.478.256-.974.53-1.485.825-.588.29-1.174.55-1.76.77-.588.22-1.21.4-1.87.55-.588.146-.954.22-1.1.22h-.88v.11h-.33c-.954 0-1.87-.148-2.75-.44-.294-.074-.55-.147-.77-.22-.22-.074-.478-.185-.77-.33-.294-.148-.57-.313-.825-.495-.258-.184-.495-.35-.715-.495-.44-.368-.844-.77-1.21-1.21-.22-.294-.404-.55-.55-.77-.148-.22-.295-.44-.44-.66-.44-.81-.77-1.65-.99-2.53-.147-.586-.294-1.32-.44-2.2-.074-.66-.11-1.265-.11-1.814v-1.704c0-.586.02-1.136.056-1.65.037-.51.093-1.025.166-1.54.072-.51.146-1.006.22-1.484.072-.476.146-.97.22-1.484.147-.952.33-1.87.55-2.75s.44-1.796.66-2.75c.146-.88.33-1.76.55-2.64l.66-2.64c.513-1.687.99-3.373 1.43-5.06l1.32-5.062.66-2.42.66-2.42c.147-.806.312-1.595.495-2.365.183-.77.35-1.52.495-2.254.146-.44.22-.77.22-.99l-.22.11c-.588.22-1.23.478-1.925.77-.696.294-1.374.66-2.034 1.1-.66.37-1.32.77-1.98 1.21s-1.32.955-1.98 1.54c-.293.295-.587.57-.88.826-.293.258-.587.532-.88.825-.293.294-.568.588-.824.88-.258.295-.533.625-.825.99-2.2 2.42-4.29 5.06-6.27 7.92-.294.368-.55.716-.77 1.046-.22.33-.44.68-.66 1.045-.59.81-1.064 1.54-1.43 2.2l-.66 1.1-.66 1.1c-.22.37-.44.735-.66 1.102l-.66 1.1c-.88 1.468-1.724 2.953-2.53 4.455-.808 1.504-1.578 3.062-2.31 4.675-.368.808-.734 1.595-1.1 2.365-.368.77-.735 1.56-1.1 2.365l-.99 2.297zm14.85-67.32c-.148.808-.313 1.595-.495 2.364-.185.77-.35 1.56-.496 2.365.146-.148.238-.258.275-.33.036-.074.127-.185.275-.33.292-.44.586-.863.88-1.267.292-.402.586-.787.88-1.155.44-.587.732-.99.88-1.21.072-.147.146-.257.22-.33.072-.073.146-.183.22-.33l.22-.22.11-.33 1.65-2.64c2.052-3.594 3.886-7.188 5.5-10.78.806-1.907 1.54-3.813 2.2-5.72.66-1.907 1.246-3.813 1.76-5.722l.22-.77.11-.33.11-.33c.072-.22.11-.457.11-.715 0-.255.035-.494.11-.714.22-.952.33-1.942.33-2.97V11.07c0-.475-.038-.934-.11-1.374-.074-.22-.13-.458-.166-.715-.035-.255-.09-.456-.162-.604 0-.22-.038-.42-.11-.605-.074-.18-.147-.346-.22-.494-.295-.366-.48-.586-.55-.66h-.11v.33h-.11l-.66.33-.55.55c-.22.22-.44.478-.66.77-.22.368-.44.715-.66 1.045-.22.33-.44.68-.66 1.046-.367.734-.733 1.523-1.1 2.365-.367.845-.734 1.67-1.1 2.476-.368.88-.68 1.76-.936 2.64-.257.88-.567 1.8-.934 2.75l-.99 2.75-.44 1.43-.33.66-.11.66c-.147.44-.293.9-.438 1.376-.148.478-.295.935-.44 1.375-.147.513-.258 1.008-.33 1.483-.074.48-.185.936-.33 1.375-.294 1.028-.55 2.02-.77 2.97-.22.954-.44 1.944-.66 2.97l-.66 2.97-.77 2.97zm107.247 45.76c-.733 1.1-1.504 2.054-2.31 2.86-.808.953-1.67 1.87-2.585 2.75-.918.88-1.926 1.724-3.025 2.53-.514.367-1.045.733-1.595 1.1-.55.367-1.155.733-1.815 1.1-1.32.733-2.64 1.248-3.96 1.54-1.32.44-2.788.66-4.4.66h-.55l-1.65 2.64c-1.393 2.2-2.896 4.218-4.51 6.05-.88 1.028-1.814 1.98-2.805 2.86s-2.035 1.722-3.135 2.53c-.588.365-1.174.73-1.76 1.1-.588.366-1.21.732-1.87 1.1-.368.146-.698.275-.99.386-.294.11-.624.236-.99.385-.513.294-1.21.55-2.09.77-.367.148-.714.24-1.044.277-.33.036-.68.09-1.043.165-.37.073-.734.128-1.1.166-.37.036-.734.09-1.102.165h-1.1c-.293.073-.66.11-1.1.11-.367-.073-.752-.11-1.154-.11-.402 0-.824-.037-1.264-.11-1.614-.22-3.23-.66-4.84-1.32-.81-.366-1.578-.807-2.31-1.318-.735-.514-1.43-1.064-2.09-1.65-1.32-1.174-2.386-2.53-3.19-4.07-.44-.806-.81-1.557-1.1-2.255-.295-.695-.55-1.447-.772-2.255-.44-1.32-.77-2.786-.99-4.4-.146-.73-.22-1.446-.22-2.145 0-.696-.036-1.41-.11-2.145 0-2.786.22-5.5.66-8.14.22-1.32.477-2.622.77-3.905.293-1.282.623-2.548.99-3.795.732-2.42 1.613-4.877 2.64-7.37.953-2.347 2.128-4.73 3.52-7.15.66-1.246 1.376-2.42 2.147-3.52.77-1.1 1.633-2.236 2.586-3.41.44-.586.916-1.137 1.43-1.65.513-.512 1.062-1.026 1.65-1.54 1.026-1.026 2.272-2.052 3.74-3.08 1.393-1.025 3.006-1.87 4.84-2.53.44-.22.896-.385 1.375-.494.478-.11.97-.236 1.485-.385l1.65-.33h.88c.073 0 .128-.017.165-.055.036-.036.126-.055.274-.055h.33c1.61-.072 3.098.258 4.455.99 1.353.733 2.436 1.724 3.242 2.97 1.173-.22 2.492-.33 3.96-.33.44.074.88.13 1.32.165.44.038.917.13 1.43.275 1.026.367 1.907.77 2.64 1.21.807.514 1.577 1.138 2.31 1.87.587.733 1.102 1.468 1.542 2.2.44.733.787 1.467 1.045 2.2.255.733.456 1.467.603 2.2.146.732.257 1.43.33 2.09.072.66.11 1.356.11 2.09.072 1.32.055 2.622-.055 3.904-.112 1.283-.276 2.55-.497 3.794-.44 2.568-.99 4.99-1.65 7.26-.366 1.25-.73 2.44-1.1 3.576-.366 1.138-.807 2.293-1.32 3.465-.145.44-.31.864-.493 1.267-.185.403-.35.824-.496 1.265.367-.072.73-.127 1.1-.165.367-.036.733-.127 1.1-.275.44-.146.898-.31 1.377-.495.477-.182.97-.385 1.484-.604.954-.44 1.89-.952 2.806-1.54.916-.586 1.815-1.21 2.694-1.87.44-.366.86-.732 1.266-1.1.402-.366.824-.732 1.265-1.1.44-.367.86-.77 1.266-1.21.402-.44.787-.843 1.155-1.21.367-.367.77-.568 1.21-.605.44-.036.843.13 1.21.495.733.733.844 1.468.33 2.2-.367.514-.732 1.01-1.1 1.484-.366.475-.732.97-1.1 1.483zm-29.15 13.86c.732-.732 1.43-1.54 2.09-2.42.073 0 .11-.037.11-.11-.367-.146-.68-.293-.935-.44-.258-.146-.568-.292-.936-.44-.733-.365-1.43-.75-2.09-1.154-.66-.402-1.283-.825-1.87-1.266-2.347-1.98-4.327-4.252-5.94-6.82-.146-.145-.367-.44-.658-.88l-.11-.33h-.11v-.22c-.074-.07-.13-.145-.165-.22-.036-.07-.09-.145-.163-.22-.148-.365-.312-.73-.495-1.1-.183-.365-.348-.73-.494-1.1-.588-1.466-1.027-2.933-1.32-4.4-.293-1.392-.44-2.932-.44-4.62v-1.32c-.073.075-.128.148-.164.22-.038.075-.093.15-.165.22-1.25 1.69-2.35 3.45-3.3 5.28-1.98 3.595-3.52 7.41-4.62 11.44-.22 1.028-.424 2.02-.606 2.97-.184.955-.312 1.945-.385 2.97-.22 2.055-.185 3.815.11 5.28.07.66.255 1.395.55 2.2.145.295.292.57.44.826.144.258.29.494.44.715.22.22.42.425.603.606.184.185.422.35.716.495.512.295 1.135.55 1.87.77.44.15.84.22 1.21.22.22 0 .4.04.55.11h1.98c.22 0 .44-.016.66-.054.22-.036.44-.055.66-.055 1.83-.22 3.63-.77 5.39-1.65 1.83-.95 3.555-2.05 5.17-3.3.44-.365.86-.73 1.264-1.1.403-.365.788-.732 1.156-1.1zm7.26-39.05c-1.318.073-2.383.77-3.19 2.09-.146.147-.366.44-.66.88-.072.147-.145.312-.218.494-.074.185-.148.35-.22.495-.368.806-.59 1.576-.66 2.31-.148.807-.294 1.576-.44 2.31-.148.733-.258 1.503-.33 2.31-.074.367-.13.77-.165 1.21-.038.44-.056.844-.056 1.21-.073.367-.092.752-.055 1.154.038.404.057.825.057 1.266.072.368.11.754.11 1.155 0 .404.072.825.22 1.266 0 .296.072.66.22 1.1v.33c0 .076.036.11.11.11v.22c.072.148.11.26.11.33 0 .075.036.185.11.33.44 1.54 1.136 3.118 2.09 4.73.22.368.457.698.715.99.257.294.532.624.825.99.367.367.66.624.88.77.073.074.257.185.55.33.22-.586.458-1.154.716-1.705.258-.55.496-1.117.717-1.705.365-1.026.715-2.07 1.045-3.136.33-1.062.64-2.145.935-3.245.292-1.027.513-2.09.66-3.19.145-1.1.292-2.2.44-3.3.07-1.1.09-2.183.055-3.246-.038-1.062-.13-2.107-.275-3.136-.074-.953-.294-1.87-.66-2.75-.367-1.026-.734-1.723-1.1-2.09-.294-.293-.514-.477-.66-.55-.148-.22-.33-.33-.55-.33-.074 0-.147-.018-.22-.056-.074-.036-.185-.056-.33-.056-.296 0-.552.04-.77.11zm97.79-25.63c.44 0 .825.165 1.155.495s.494.753.494 1.265c0 .514-.164.918-.494 1.21-.33.294-.715.48-1.154.55l-49.17 1.54c0 .074-.074.258-.22.55-.44 1.248-.9 2.458-1.376 3.63-.48 1.175-.973 2.35-1.485 3.52-1.028 2.42-2.054 4.824-3.08 7.206-1.028 2.384-2.128 4.75-3.3 7.095-.588 1.25-1.155 2.46-1.705 3.633-.55 1.174-1.12 2.348-1.705 3.52-.294.588-.588 1.192-.88 1.815-.294.623-.624 1.23-.99 1.814l-.88 1.76-.44.882-.22.55c-.147.147-.22.294-.22.44-.073 0-.11.037-.11.11 0 .293-.02.567-.055.824-.037.258-.055.532-.055.825-.074 1.248-.11 2.458-.11 3.63v3.52c0 2.42.11 4.73.33 6.93.22 2.35.55 4.512.99 6.49.586 1.98 1.32 3.67 2.2 5.062.512.733.99 1.247 1.43 1.54.44.367 1.025.66 1.76.88.146.073.33.11.55.11.22 0 .402.037.55.11h1.1c.732-.073 1.54-.293 2.42-.66.367-.147.772-.33 1.21-.55s.843-.514 1.21-.88c.44-.293.862-.623 1.266-.99s.79-.733 1.157-1.1c.366-.367.75-.772 1.155-1.21.403-.44.788-.88 1.155-1.32s.715-.898 1.045-1.376c.33-.478.678-.97 1.045-1.486.367-.51.697-1.006.99-1.483.293-.476.586-.97.88-1.484.366-.586.678-1.136.936-1.65.258-.512.532-1.062.826-1.65l1.65-3.3c.145-.292.273-.566.384-.824.11-.256.237-.53.386-.825l.33-.88.11-.44.22-.33V87.8c.22-.586.622-1.008 1.21-1.266.586-.256 1.172-.274 1.76-.055.513.22.897.567 1.155 1.043.257.478.312 1.01.165 1.595l-.11.55-.108.44c0 .22-.074.55-.22.99-.075.367-.148.678-.22.934-.075.258-.148.57-.22.936-.15.66-.33 1.303-.552 1.925-.22.624-.44 1.265-.66 1.925-.22.588-.44 1.193-.66 1.815-.22.624-.44 1.265-.66 1.925l-1.648 3.63-1.98 3.63c-.368.588-.753 1.174-1.155 1.76-.403.588-.825 1.175-1.265 1.76-.44.59-.9 1.14-1.375 1.65-.48.513-1.01 1.062-1.596 1.65-.587.512-1.173 1.007-1.76 1.485-.587.476-1.247.935-1.98 1.375-1.466.952-3.08 1.576-4.84 1.87-.44.145-.88.236-1.32.274-.44.036-.88.09-1.32.165h-1.32c-.44 0-.918-.04-1.43-.11-.44-.074-.88-.148-1.32-.22-.44-.075-.88-.185-1.32-.33-1.174-.368-2.055-.734-2.64-1.1-.88-.44-1.69-.955-2.42-1.54-.734-.59-1.395-1.21-1.98-1.87-1.175-1.25-2.2-2.604-3.08-4.07-.733-1.247-1.394-2.64-1.98-4.18-.147-.367-.274-.716-.385-1.046s-.24-.677-.385-1.044c-.294-.587-.515-1.283-.66-2.09-.44-1.468-.77-2.86-.99-4.182-.587-2.786-.973-5.536-1.155-8.25-.182-2.712-.236-5.426-.164-8.14.074-2.64.203-5.28.385-7.92s.42-5.28.715-7.92c.66-5.206 1.54-10.412 2.64-15.62.22-.88.44-1.777.66-2.695.22-.917.44-1.85.66-2.806l-41.47 1.43c-1.54 0-2.86-.512-3.962-1.54-1.1-1.025-1.686-2.31-1.76-3.85-.072-1.466.424-2.768 1.485-3.905 1.063-1.137 2.33-1.706 3.795-1.706h.44l43.89 1.32c.072-.22.146-.457.22-.715.072-.257.146-.496.22-.716.807-2.566 1.706-5.077 2.696-7.535.99-2.457 2.034-4.897 3.135-7.316.584-1.246 1.207-2.456 1.867-3.63.66-1.172 1.356-2.346 2.09-3.52.367-.586.77-1.155 1.21-1.705.44-.55.88-1.118 1.32-1.706.44-.586.88-1.136 1.32-1.65.44-.512.952-1.062 1.54-1.65.586-.512 1.154-1.007 1.705-1.485.55-.477 1.154-.97 1.814-1.486.367-.22.715-.44 1.045-.66.33-.22.68-.44 1.046-.66.367-.146.77-.31 1.21-.495.44-.183.88-.348 1.32-.496.44-.146.897-.256 1.376-.33.476-.072 1.006-.11 1.594-.11h.55c.073 0 .11.038.11.11h.11c.366 0 .66.038.88.11.366.074.916.258 1.65.55.365.147.66.33.88.55l.66.66c.366.44.73.917 1.1 1.43.366.88.622 1.798.77 2.75.073.368.11.753.11 1.155v1.154c-.074.368-.11.715-.11 1.045s-.037.68-.11 1.044c-.146.734-.273 1.43-.384 2.09s-.24 1.32-.386 1.98c-.147.66-.312 1.302-.494 1.925-.184.622-.385 1.264-.605 1.924l-.22.88c-.074.294-.185.624-.33.99-.147.367-.24.68-.274.935-.04.257-.13.57-.275.935-.37 1.246-.77 2.456-1.212 3.63-.44 1.173-.88 2.383-1.32 3.63l-1.318 3.63-.66 1.76-.66 1.87 46.636 1.54zm-57.86 10.01c.44-.807.896-1.596 1.374-2.366.475-.77.934-1.557 1.373-2.364l-4.62.11c-.367 1.467-.714 2.952-1.044 4.454-.33 1.504-.68 2.99-1.046 4.455-.148.512-.258.99-.33 1.43-.074.44-.148.916-.22 1.43.806-1.173 1.575-2.348 2.31-3.52.733-1.174 1.466-2.384 2.2-3.63zm3.85-23.87c-.733 1.907-1.413 3.868-2.035 5.885-.624 2.018-1.23 4.053-1.815 6.104l6.27.11c.147-.294.257-.55.33-.773.072-.22.184-.476.33-.77 2.127-4.546 3.996-9.24 5.61-14.08.147-.292.257-.586.33-.88.072-.292.183-.586.33-.88.072-.293.146-.587.22-.88.072-.293.146-.587.22-.88.147-.587.276-1.19.386-1.815.11-.622.24-1.228.387-1.815.22-1.1.33-2.272.33-3.52 0-.292-.02-.567-.055-.825-.037-.256-.054-.53-.054-.825-.074-.366-.185-.842-.33-1.43-.074-.366-.22-.66-.44-.88h-.22v.11l-.11.11h-.22v.11h-.11c-.293.148-.513.294-.658.44-.66.514-1.248 1.138-1.76 1.87-.148.22-.275.44-.386.66-.11.22-.24.44-.386.66-.22.294-.477.734-.77 1.32-.44.88-.918 1.908-1.43 3.08-.294.515-.55 1.028-.77 1.54l-.66 1.65c-.44 1.1-.863 2.2-1.266 3.3-.405 1.102-.825 2.202-1.265 3.3z" enable-background="new" fill="#2C3E50"/></svg>